<svg width="102" height="37" viewBox="0 0 102 37" fill="none" xmlns="http://www.w3.org/2000/svg">
<g clip-path="url(#clip0_738_66014)">
<path d="M10.3178 -4.08829C11.4754 -4.75725 12.9013 -4.75725 14.0589 -4.08829L21.0421 -0.05265C22.1999 0.616432 22.914 1.85359 22.914 3.1934V11.2647C22.914 12.6045 22.1999 13.8416 21.0421 14.5107L14.0589 18.5463C12.9013 19.2153 11.4754 19.2153 10.3178 18.5463L3.33459 14.5107C2.17682 13.8416 1.46272 12.6045 1.46272 11.2647V3.1934C1.46272 1.85359 2.17682 0.616433 3.33459 -0.05265L10.3178 -4.08829Z" stroke="#0A0032" stroke-width="3.65592"/>
</g>
<g clip-path="url(#clip1_738_66014)">
<path fill-rule="evenodd" clip-rule="evenodd" d="M20.5452 9.3618L14.888 6.09645C13.2288 5.13875 11.1845 5.13875 9.5253 6.09645L6.16387 8.03668L3.86633 9.36283V13.3034C3.86633 13.3896 3.91232 13.4699 3.98804 13.5136L4.12248 13.5912C4.25783 13.4123 4.42925 13.2591 4.63005 13.1432L7.99148 11.203L11.3529 9.26277C11.8812 8.95786 12.5321 8.95786 13.0604 9.26277L19.7833 13.1432C19.9838 13.259 20.155 13.4119 20.2903 13.5905L20.4235 13.5136C20.4992 13.4699 20.5452 13.3896 20.5452 13.3034V9.3618ZM3.77701 19.3015V22.3808C3.77701 22.9897 4.1019 23.5527 4.63005 23.8576L11.3529 27.738C11.8812 28.0429 12.5321 28.0429 13.0604 27.738L19.7833 23.8576C20.3114 23.5527 20.6363 22.9897 20.6363 22.3808V19.3005L22.9821 17.9465C23.4795 17.6594 23.9197 17.2993 24.2922 16.8841V22.3808C24.2922 24.2963 23.2701 26.0662 21.6109 27.0239L14.888 30.9043C13.2288 31.862 11.1845 31.862 9.5253 30.9043L2.80244 27.0239C1.14322 26.0662 0.121094 24.2963 0.121094 22.3808V16.8861C0.493238 17.3004 0.93278 17.6598 1.4294 17.9465L3.77701 19.3015Z" fill="#0A0032"/>
</g>
<g clip-path="url(#clip2_738_66014)">
<path fill-rule="evenodd" clip-rule="evenodd" d="M20.5476 9.36293L14.8885 6.09645C13.2293 5.13875 11.185 5.13875 9.52579 6.09645L6.16436 8.03668L3.86877 9.3617V13.3028C3.86877 13.389 3.91476 13.4693 3.99049 13.513L4.12387 13.59C4.25908 13.4117 4.43018 13.2589 4.63054 13.1432L7.99197 11.203L11.3534 9.26277C11.8817 8.95786 12.5326 8.95786 13.0609 9.26277L19.7837 13.1432C19.9844 13.2591 20.1558 13.4122 20.2911 13.5909L20.4259 13.513C20.5017 13.4693 20.5476 13.389 20.5476 13.3028V9.36293ZM3.7775 19.2998V22.3808C3.7775 22.9897 4.10238 23.5527 4.63054 23.8576L11.3534 27.738C11.8817 28.0429 12.5326 28.0429 13.0609 27.738L19.7837 23.8576C20.3119 23.5527 20.6368 22.9897 20.6368 22.3808V19.301L22.9846 17.9459C23.4811 17.6593 23.9206 17.2999 24.2927 16.8857V22.3808C24.2927 24.2963 23.2706 26.0662 21.6114 27.0239L14.8885 30.9043C13.2293 31.862 11.185 31.862 9.52579 30.9043L2.80293 27.0239C1.14371 26.0662 0.121582 24.2963 0.121582 22.3808V16.8834C0.494141 17.2986 0.934352 17.6587 1.43184 17.9459L3.7775 19.2998Z" fill="#0A0032"/>
</g>
<path d="M33.0752 10.6963H35.6075L41.477 18.6485L47.3701 10.6963H49.9025V27.5H47.1098V15.4534L41.5007 23.0742L35.8442 15.4297V27.5H33.0752V10.6963ZM54.9166 13.0867C54.4433 13.0867 54.0331 12.921 53.686 12.5897C53.3388 12.2426 53.1653 11.8244 53.1653 11.3353C53.1653 10.862 53.3388 10.4596 53.686 10.1283C54.0331 9.78116 54.4433 9.6076 54.9166 9.6076C55.4058 9.6076 55.816 9.78116 56.1473 10.1283C56.4787 10.4596 56.6444 10.862 56.6444 11.3353C56.6444 11.8244 56.4787 12.2426 56.1473 12.5897C55.816 12.921 55.4058 13.0867 54.9166 13.0867ZM53.615 27.5V15.6664H56.2183V27.5H53.615ZM64.5684 27.7367C62.9591 27.7367 61.6021 27.1371 60.4977 25.938C59.409 24.7388 58.8646 23.2872 58.8646 21.5832C58.8646 19.8792 59.409 18.4276 60.4977 17.2284C61.6021 16.0293 62.9591 15.4297 64.5684 15.4297C65.3731 15.4297 66.1147 15.6112 66.7931 15.9741C67.4716 16.3212 67.9923 16.7472 68.3552 17.2521V9.74961H70.9586V27.5H68.3552V25.9143C67.9923 26.4192 67.4716 26.8531 66.7931 27.216C66.1147 27.5631 65.3731 27.7367 64.5684 27.7367ZM62.5094 24.2813C63.1721 25.0071 64.0162 25.37 65.0418 25.37C66.0673 25.37 66.9115 25.0071 67.5742 24.2813C68.2368 23.5555 68.5682 22.6561 68.5682 21.5832C68.5682 20.5103 68.2368 19.6109 67.5742 18.8851C66.9115 18.1593 66.0673 17.7965 65.0418 17.7965C64.0162 17.7965 63.1721 18.1593 62.5094 18.8851C61.8467 19.6109 61.5154 20.5103 61.5154 21.5832C61.5154 22.6561 61.8467 23.5555 62.5094 24.2813ZM79.716 27.7367C77.9488 27.7367 76.4972 27.1608 75.3612 26.009C74.2252 24.8414 73.6572 23.3661 73.6572 21.5832C73.6572 19.8003 74.2173 18.3329 75.3375 17.1811C76.4578 16.0135 77.9252 15.4297 79.7396 15.4297C81.5699 15.4297 83.0452 16.0687 84.1654 17.3468C85.2857 18.609 85.7827 20.2342 85.6564 22.2222H76.2369C76.2685 23.1373 76.6156 23.9026 77.2783 24.5179C77.9409 25.1333 78.7851 25.441 79.8106 25.441C81.2622 25.441 82.2563 24.8887 82.7927 23.7843H85.5144C85.1515 24.9361 84.4573 25.8827 83.4317 26.6243C82.4061 27.3659 81.1676 27.7367 79.716 27.7367ZM79.6686 17.6071C78.8166 17.6071 78.0829 17.8517 77.4676 18.3408C76.868 18.8141 76.4815 19.4926 76.3079 20.3762H82.8637C82.6744 19.461 82.2878 18.7747 81.704 18.3171C81.1202 17.8438 80.4418 17.6071 79.6686 17.6071ZM88.3299 27.5V15.6664H90.9333V17.2758C91.6749 16.0451 92.874 15.4297 94.5307 15.4297C95.9034 15.4297 97 15.8794 97.8205 16.7788C98.6409 17.6781 99.0511 18.8773 99.0511 20.3762V27.5H96.4478V20.8022C96.4478 19.8555 96.2269 19.1218 95.7851 18.6011C95.3433 18.0647 94.7437 17.7965 93.9864 17.7965C93.087 17.7965 92.3533 18.1357 91.7853 18.8141C91.2173 19.4926 90.9333 20.4472 90.9333 21.6779V27.5H88.3299Z" fill="#0A0032"/>
<defs>
<clipPath id="clip0_738_66014">
<rect y="7.35083" width="24.254" height="13.5251" rx="5.84947" fill="white"/>
</clipPath>
<clipPath id="clip1_738_66014">
<rect width="10.4816" height="26.1974" fill="white" transform="translate(6.94727 5.40137)"/>
</clipPath>
<clipPath id="clip2_738_66014">
<rect width="24.1321" height="17.0587" fill="white" transform="translate(0.121582 14.5398)"/>
</clipPath>
</defs>
</svg>
